<?xml version="1.0" encoding="utf-8"?>
<!-- Generator: Adobe Illustrator 23.0.3, SVG Export Plug-In . SVG Version: 6.00 Build 0)  -->
<svg version="1.1" xmlns="http://www.w3.org/2000/svg" xmlns:xlink="http://www.w3.org/1999/xlink" x="0px" y="0px"
	 viewBox="0 0 49.32 48.73" style="enable-background:new 0 0 49.32 48.73;" xml:space="preserve">
<style type="text/css">
	.st0{fill:#4D4D4D;}
	.st1{opacity:0.8;fill:#E7E7E7;}
	.st2{opacity:0.4;fill:#FFFFFF;}
	.st3{opacity:0.8;fill:none;stroke:#0094D8;stroke-width:7;stroke-linecap:round;stroke-linejoin:round;stroke-miterlimit:10;}
	.st4{opacity:0.4;fill:#E7E7E7;}
	.st5{opacity:0.9;fill:#FFFFFF;}
	.st6{display:none;opacity:0.4;fill:#FFFFFF;}
	.st7{fill:#0093D7;}
	.st8{fill:#FFFFFF;}
	.st9{opacity:0.6;}
	.st10{fill:#008FD3;}
	.st11{fill:none;stroke:#FFFFFF;stroke-width:2;stroke-miterlimit:10;}
	.st12{fill:none;}
	.st13{fill:none;stroke:#FFFFFF;stroke-width:1.386;stroke-miterlimit:10;}
	.st14{opacity:0.6;fill:#008FD3;}
	.st15{opacity:0.8;}
	.st16{fill:#E7E7E7;}
	.st17{fill:none;stroke:#FFFFFF;stroke-width:1.386;stroke-linecap:round;stroke-miterlimit:10;}
	.st18{opacity:0.9;fill:#008FD3;}
	.st19{opacity:0.2;fill:#008FD3;}
	.st20{opacity:0.1;fill:#008FD3;}
	.st21{fill:none;stroke:#0093D7;stroke-width:1.386;stroke-linecap:round;stroke-miterlimit:10;}
	.st22{fill:none;stroke:#0093D7;stroke-width:1.386;stroke-miterlimit:10;}
	.st23{opacity:0.8;fill:#008FD3;}
	.st24{opacity:0.4;fill:#0093D7;}
	.st25{fill:#FFFFFF;stroke:#0094D8;stroke-width:1.808;stroke-miterlimit:10;}
	.st26{fill:none;stroke:#FFFFFF;stroke-width:1.0769;stroke-miterlimit:10;}
	.st27{fill:none;stroke:#FFFFFF;stroke-width:1.4;stroke-miterlimit:10;}
	.st28{fill:none;stroke:#0093D7;stroke-miterlimit:10;}
	.st29{fill:none;stroke:#FFFFFF;stroke-width:1.0161;stroke-miterlimit:10;}
	.st30{fill:#FCFFFF;}
	.st31{fill:none;stroke:#FFFFFF;stroke-miterlimit:10;}
	.st32{fill:none;stroke:#FFFFFF;stroke-linecap:round;stroke-miterlimit:10;}
	.st33{fill:none;stroke:#FFFFFF;stroke-width:1.1219;stroke-miterlimit:10;}
	.st34{opacity:0.6;fill:#FFFFFF;}
	.st35{opacity:0.86;fill:#008FD3;}
	.st36{fill:#0091D5;}
	.st37{opacity:0.8;fill:#FFFFFF;}
	.st38{opacity:0.8;fill:#4D4D4D;}
	.st39{fill-rule:evenodd;clip-rule:evenodd;fill:#FFFFFF;}
	
		.st40{fill-rule:evenodd;clip-rule:evenodd;fill:none;stroke:#0093D7;stroke-width:1.3;stroke-linecap:round;stroke-linejoin:round;stroke-miterlimit:10;}
	
		.st41{fill-rule:evenodd;clip-rule:evenodd;fill:none;stroke:#0093D7;stroke-linecap:round;stroke-linejoin:round;stroke-miterlimit:10;}
</style>
<g id="Capa_2">
</g>
<g id="Layer_1">
	<g>
		<g>
			<path class="st8" d="M26.97,47h-4.87l-1.68-2.64l-1.68-1.07V38.2c-0.22-1.05-0.88-3-1.62-4.11c-1.52-2.29-3.24-4.88-3.24-8.26
				c0-5.89,4.79-10.68,10.69-10.68c5.89,0,10.68,4.79,10.68,10.68c0,3.37-1.72,5.97-3.24,8.26c-0.75,1.12-1.43,3.1-1.65,4.11v5.09
				l-1.73,1.07L26.97,47z M23.11,45.17h2.86l1.36-2.14l1.22-0.76v-3.25h-7.97v3.26l1.17,0.75L23.11,45.17z M20.39,37.2h8.36
				c0.33-1.21,0.98-2.95,1.75-4.11c1.38-2.07,2.94-4.42,2.94-7.24c0-4.88-3.98-8.85-8.86-8.85c-4.89,0-8.86,3.97-8.86,8.85
				c0,2.82,1.56,5.17,2.94,7.24C19.42,34.24,20.05,35.97,20.39,37.2 M8.89,30.62l-6.55-3.25c-0.69-0.34-1.14-1.04-1.16-1.81
				c-0.03-0.77,0.37-1.49,1.04-1.88l6.72-3.91c0.11-0.07,0.16-0.2,0.12-0.32L5.68,9.4C5.43,8.66,5.62,7.84,6.16,7.28
				C6.7,6.71,7.5,6.49,8.26,6.71l9.39,2.72c0.1,0.03,0.22-0.01,0.28-0.09l5.72-6.86c0.43-0.51,1.07-0.79,1.74-0.75
				c0.66,0.04,1.27,0.4,1.64,0.96l4.36,6.79c0.06,0.09,0.17,0.14,0.28,0.12l8.88-1.58c0.74-0.13,1.49,0.14,1.97,0.7
				c0.48,0.56,0.63,1.35,0.38,2.05l-2.85,8.18c-0.04,0.13,0.02,0.27,0.14,0.33l6.76,3.25c0.67,0.33,1.13,0.99,1.18,1.73
				c0.06,0.75-0.29,1.47-0.91,1.89l-6.29,4.29l-1.03-1.51l6.29-4.3c0.08-0.05,0.13-0.15,0.12-0.25c-0.01-0.1-0.06-0.18-0.15-0.22
				l-6.76-3.26c-0.96-0.46-1.42-1.57-1.07-2.58l2.85-8.18c0.03-0.09,0.01-0.19-0.05-0.27c-0.06-0.07-0.15-0.11-0.25-0.09l-8.88,1.58
				c-0.84,0.15-1.67-0.22-2.13-0.93l-4.36-6.79c-0.05-0.07-0.13-0.12-0.21-0.12c-0.09-0.01-0.17,0.03-0.23,0.1l-5.72,6.86
				c-0.53,0.64-1.39,0.9-2.2,0.67L7.75,8.47c-0.1-0.03-0.2,0-0.27,0.07C7.41,8.61,7.38,8.72,7.42,8.82l3.38,10.04
				c0.32,0.94-0.08,1.98-0.93,2.48l-6.72,3.91C3.06,25.31,3,25.4,3.01,25.5c0,0.1,0.06,0.19,0.15,0.23l6.55,3.25L8.89,30.62z"/>
			<path class="st8" d="M20.21,27.16c-0.46,0-0.88-0.12-1.25-0.34c-0.72-0.45-1.16-1.27-1.19-2.27c-0.03-0.88,0.25-1.83,0.77-2.68
				c0.83-1.34,2.14-2.2,3.36-2.2c0.46,0,0.88,0.12,1.25,0.34c0.72,0.45,1.16,1.27,1.19,2.27c0.03,0.88-0.25,1.82-0.77,2.68
				C22.74,26.29,21.42,27.16,20.21,27.16 M21.9,21.48c-0.47,0-1.24,0.42-1.8,1.34c-0.33,0.54-0.52,1.15-0.5,1.66
				c0.01,0.18,0.05,0.61,0.32,0.78c0.42,0.26,1.39-0.12,2.09-1.26c0.33-0.54,0.52-1.15,0.5-1.66c-0.01-0.18-0.05-0.61-0.32-0.78
				C22.11,21.5,22.02,21.48,21.9,21.48"/>
		</g>
	</g>
</g>
</svg>
