<?xml version="1.0" encoding="utf-8"?>
<!-- Generator: Adobe Illustrator 23.0.3, SVG Export Plug-In . SVG Version: 6.00 Build 0)  -->
<svg version="1.1" xmlns="http://www.w3.org/2000/svg" xmlns:xlink="http://www.w3.org/1999/xlink" x="0px" y="0px"
	 viewBox="0 0 30.24 29.53" style="enable-background:new 0 0 30.24 29.53;" xml:space="preserve">
<style type="text/css">
	.st0{fill:#4D4D4D;}
	.st1{opacity:0.8;fill:#E7E7E7;}
	.st2{opacity:0.4;fill:#FFFFFF;}
	.st3{opacity:0.8;fill:none;stroke:#0094D8;stroke-width:7;stroke-linecap:round;stroke-linejoin:round;stroke-miterlimit:10;}
	.st4{opacity:0.4;fill:#E7E7E7;}
	.st5{opacity:0.9;fill:#FFFFFF;}
	.st6{display:none;opacity:0.4;fill:#FFFFFF;}
	.st7{fill:#0093D7;}
	.st8{fill:#FFFFFF;}
	.st9{opacity:0.6;}
	.st10{fill:#008FD3;}
	.st11{fill:none;stroke:#FFFFFF;stroke-width:2;stroke-miterlimit:10;}
	.st12{fill:none;}
	.st13{fill:none;stroke:#FFFFFF;stroke-width:1.386;stroke-miterlimit:10;}
	.st14{opacity:0.6;fill:#008FD3;}
	.st15{opacity:0.8;}
	.st16{fill:#E7E7E7;}
	.st17{fill:none;stroke:#FFFFFF;stroke-width:1.386;stroke-linecap:round;stroke-miterlimit:10;}
	.st18{opacity:0.9;fill:#008FD3;}
	.st19{opacity:0.2;fill:#008FD3;}
	.st20{opacity:0.1;fill:#008FD3;}
	.st21{fill:none;stroke:#0093D7;stroke-width:1.386;stroke-linecap:round;stroke-miterlimit:10;}
	.st22{fill:none;stroke:#0093D7;stroke-width:1.386;stroke-miterlimit:10;}
	.st23{opacity:0.8;fill:#008FD3;}
	.st24{opacity:0.4;fill:#0093D7;}
	.st25{fill:#FFFFFF;stroke:#0094D8;stroke-width:1.808;stroke-miterlimit:10;}
	.st26{fill:none;stroke:#FFFFFF;stroke-width:1.0769;stroke-miterlimit:10;}
	.st27{fill:none;stroke:#FFFFFF;stroke-width:1.4;stroke-miterlimit:10;}
	.st28{fill:none;stroke:#0093D7;stroke-miterlimit:10;}
	.st29{fill:none;stroke:#FFFFFF;stroke-width:1.0161;stroke-miterlimit:10;}
	.st30{fill:#FCFFFF;}
	.st31{fill:none;stroke:#FFFFFF;stroke-miterlimit:10;}
	.st32{fill:none;stroke:#FFFFFF;stroke-linecap:round;stroke-miterlimit:10;}
	.st33{fill:none;stroke:#FFFFFF;stroke-width:1.1219;stroke-miterlimit:10;}
	.st34{opacity:0.6;fill:#FFFFFF;}
	.st35{opacity:0.86;fill:#008FD3;}
	.st36{fill:#0091D5;}
	.st37{opacity:0.8;fill:#FFFFFF;}
	.st38{opacity:0.8;fill:#4D4D4D;}
	.st39{fill-rule:evenodd;clip-rule:evenodd;fill:#FFFFFF;}
	
		.st40{fill-rule:evenodd;clip-rule:evenodd;fill:none;stroke:#0093D7;stroke-width:1.3;stroke-linecap:round;stroke-linejoin:round;stroke-miterlimit:10;}
	
		.st41{fill-rule:evenodd;clip-rule:evenodd;fill:none;stroke:#0093D7;stroke-linecap:round;stroke-linejoin:round;stroke-miterlimit:10;}
</style>
<g id="Capa_2">
</g>
<g id="Layer_1">
	<g>
		<g>
			<path class="st8" d="M15.12,1.75c-7.14,0-12.95,5.84-12.95,13.02c0,7.18,5.81,13.01,12.95,13.01c7.14,0,12.94-5.84,12.94-13.01
				C28.06,7.59,22.26,1.75,15.12,1.75"/>
			<g>
				<path class="st7" d="M13.78,9.2c0-0.81,0.45-1.21,1.34-1.21c0.89,0,1.34,0.4,1.34,1.21c0,0.38-0.11,0.68-0.34,0.9
					c-0.22,0.21-0.56,0.32-1,0.32C14.23,10.41,13.78,10.01,13.78,9.2 M15.85,20.61h-1.47c-0.27,0-0.49-0.22-0.49-0.49v-8.08
					c0-0.27,0.22-0.49,0.49-0.49h1.47c0.27,0,0.49,0.22,0.49,0.49v8.08C16.35,20.39,16.13,20.61,15.85,20.61z"/>
			</g>
		</g>
	</g>
</g>
</svg>
