<?xml version="1.0" encoding="utf-8"?>
<!-- Generator: Adobe Illustrator 23.0.3, SVG Export Plug-In . SVG Version: 6.00 Build 0)  -->
<svg version="1.1" xmlns="http://www.w3.org/2000/svg" xmlns:xlink="http://www.w3.org/1999/xlink" x="0px" y="0px"
	 viewBox="0 0 45.22 45.37" style="enable-background:new 0 0 45.22 45.37;" xml:space="preserve">
<style type="text/css">
	.st0{fill:#4D4D4D;}
	.st1{opacity:0.8;fill:#E7E7E7;}
	.st2{opacity:0.4;fill:#FFFFFF;}
	.st3{opacity:0.8;fill:none;stroke:#0094D8;stroke-width:7;stroke-linecap:round;stroke-linejoin:round;stroke-miterlimit:10;}
	.st4{opacity:0.4;fill:#E7E7E7;}
	.st5{opacity:0.9;fill:#FFFFFF;}
	.st6{display:none;opacity:0.4;fill:#FFFFFF;}
	.st7{fill:#0093D7;}
	.st8{fill:#FFFFFF;}
	.st9{opacity:0.6;}
	.st10{fill:#008FD3;}
	.st11{fill:none;stroke:#FFFFFF;stroke-width:2;stroke-miterlimit:10;}
	.st12{fill:none;}
	.st13{fill:none;stroke:#FFFFFF;stroke-width:1.386;stroke-miterlimit:10;}
	.st14{opacity:0.6;fill:#008FD3;}
	.st15{opacity:0.8;}
	.st16{fill:#E7E7E7;}
	.st17{fill:none;stroke:#FFFFFF;stroke-width:1.386;stroke-linecap:round;stroke-miterlimit:10;}
	.st18{opacity:0.9;fill:#008FD3;}
	.st19{opacity:0.2;fill:#008FD3;}
	.st20{opacity:0.1;fill:#008FD3;}
	.st21{fill:none;stroke:#0093D7;stroke-width:1.386;stroke-linecap:round;stroke-miterlimit:10;}
	.st22{fill:none;stroke:#0093D7;stroke-width:1.386;stroke-miterlimit:10;}
	.st23{opacity:0.8;fill:#008FD3;}
	.st24{opacity:0.4;fill:#0093D7;}
	.st25{fill:#FFFFFF;stroke:#0094D8;stroke-width:1.808;stroke-miterlimit:10;}
	.st26{fill:none;stroke:#FFFFFF;stroke-width:1.0769;stroke-miterlimit:10;}
	.st27{fill:none;stroke:#FFFFFF;stroke-width:1.4;stroke-miterlimit:10;}
	.st28{fill:none;stroke:#0093D7;stroke-miterlimit:10;}
	.st29{fill:none;stroke:#FFFFFF;stroke-width:1.0161;stroke-miterlimit:10;}
	.st30{fill:#FCFFFF;}
	.st31{fill:none;stroke:#FFFFFF;stroke-miterlimit:10;}
	.st32{fill:none;stroke:#FFFFFF;stroke-linecap:round;stroke-miterlimit:10;}
	.st33{fill:none;stroke:#FFFFFF;stroke-width:1.1219;stroke-miterlimit:10;}
	.st34{opacity:0.6;fill:#FFFFFF;}
	.st35{opacity:0.86;fill:#008FD3;}
	.st36{fill:#0091D5;}
	.st37{opacity:0.8;fill:#FFFFFF;}
	.st38{opacity:0.8;fill:#4D4D4D;}
	.st39{fill-rule:evenodd;clip-rule:evenodd;fill:#FFFFFF;}
	
		.st40{fill-rule:evenodd;clip-rule:evenodd;fill:none;stroke:#0093D7;stroke-width:1.3;stroke-linecap:round;stroke-linejoin:round;stroke-miterlimit:10;}
	
		.st41{fill-rule:evenodd;clip-rule:evenodd;fill:none;stroke:#0093D7;stroke-linecap:round;stroke-linejoin:round;stroke-miterlimit:10;}
</style>
<g id="Capa_2">
</g>
<g id="Layer_1">
	<g>
		<g>
			<path class="st8" d="M44.01,16.08L39,11.07c-0.29-0.29-0.77-0.29-1.06,0l-4.25,4.25V2.94c0-0.41-0.33-0.75-0.75-0.75h-6.19
				c0,0-15.82,0-17.64,0H1.74c-0.42,0-0.75,0.34-0.75,0.75v39.48c0,0.41,0.33,0.75,0.75,0.75h31.2c0.42,0,0.75-0.34,0.75-0.75V27.47
				l10.32-10.32C44.3,16.85,44.3,16.38,44.01,16.08 M32.19,41.67H2.49V3.69c0,0,25.33,0,24.83,0h4.87v13.13l-11.8,11.8
				c-0.1,0.1-0.17,0.23-0.2,0.37l-1.4,6.34c-0.05,0.25,0.02,0.51,0.2,0.69c0.14,0.14,0.34,0.22,0.53,0.22c0.05,0,0.1-0.01,0.15-0.02
				l6.41-1.34c0.14-0.03,0.28-0.1,0.38-0.2l5.72-5.73V41.67z M25.56,33.47l-5.06,1.05l1.1-5l14.14-14.14l3.95,3.95L25.56,33.47z
				 M40.76,18.27l-3.95-3.95l1.66-1.66l3.95,3.95L40.76,18.27z M15.02,29.71L9.14,35.6l-2.31-2.31c-0.29-0.29-0.77-0.29-1.06,0
				c-0.29,0.29-0.29,0.77,0,1.06l2.85,2.84c0.15,0.15,0.34,0.22,0.53,0.22c0.19,0,0.38-0.07,0.53-0.22l6.42-6.42
				c0.29-0.29,0.29-0.77,0-1.06C15.79,29.42,15.32,29.42,15.02,29.71 M15.02,21.02L9.14,26.9l-2.31-2.31
				c-0.29-0.29-0.77-0.29-1.06,0c-0.29,0.29-0.29,0.77,0,1.06l2.85,2.84c0.15,0.15,0.34,0.22,0.53,0.22c0.19,0,0.38-0.07,0.53-0.22
				l6.42-6.42c0.29-0.29,0.29-0.77,0-1.06C15.79,20.72,15.32,20.72,15.02,21.02 M15.02,12.36l-5.89,5.89l-2.31-2.31
				c-0.29-0.29-0.77-0.29-1.06,0c-0.29,0.29-0.29,0.77,0,1.06l2.85,2.84c0.15,0.15,0.34,0.22,0.53,0.22c0.19,0,0.38-0.07,0.53-0.22
				l6.42-6.42c0.29-0.29,0.29-0.77,0-1.06C15.79,12.07,15.32,12.07,15.02,12.36"/>
		</g>
	</g>
</g>
</svg>
