<svg xmlns="http://www.w3.org/2000/svg" width="131.451" height="37.804" viewBox="0 0 131.451 37.804">
  <g id="Group_485" data-name="Group 485" transform="translate(-1791.12 -6376.884)">
    <g id="Group_484" data-name="Group 484">
      <path id="Path_566" data-name="Path 566" d="M1814.311,6410.784a3.965,3.965,0,1,0-3.963,3.9,3.929,3.929,0,0,0,3.963-3.9" fill="#fff"/>
      <path id="Path_567" data-name="Path 567" d="M1829.564,6405.809v-28.925H1791.12v30.053l0,0v7.663l19.176-18.856,19.27,18.947v-8.873Zm-6.375-6.268-12.889-12.673-19.176,18.855,6.37-6.266v-16.3h25.695Z" fill="#fff"/>
      <path id="Path_568" data-name="Path 568" d="M1851.787,6405.072a9.272,9.272,0,0,1-9.5-9.368v-.053a9.336,9.336,0,0,1,9.656-9.42,9.644,9.644,0,0,1,7.305,2.811l-2.594,2.941a6.88,6.88,0,0,0-4.737-2.055,5.434,5.434,0,0,0-5.372,5.672v.051a5.449,5.449,0,0,0,5.372,5.724,6.738,6.738,0,0,0,4.871-2.134l2.591,2.577a9.538,9.538,0,0,1-7.594,3.254" fill="#fff"/>
      <path id="Path_569" data-name="Path 569" d="M1869.993,6404.758v-1.508a5.5,5.5,0,0,1-4.288,1.768c-2.672,0-4.868-1.508-4.868-4.266v-.054c0-3.043,2.354-4.449,5.715-4.449a10.268,10.268,0,0,1,3.467.572v-.232c0-1.641-1.031-2.55-3.045-2.55a10.591,10.591,0,0,0-3.914.753l-1.007-3.019a12.719,12.719,0,0,1,5.506-1.117c4.393,0,6.323,2.236,6.323,6.01v8.092Zm.078-5.62a6.323,6.323,0,0,0-2.568-.52c-1.719,0-2.776.676-2.776,1.925v.052c0,1.067.9,1.693,2.2,1.693,1.879,0,3.148-1.015,3.148-2.448Z" fill="#fff"/>
      <path id="Path_570" data-name="Path 570" d="M1881.792,6405.018a10.039,10.039,0,0,1-6.084-2.106l1.718-2.6a8.1,8.1,0,0,0,4.472,1.666c1.167,0,1.7-.417,1.7-1.041v-.052c0-.859-1.375-1.145-2.938-1.614-1.984-.571-4.235-1.483-4.235-4.189v-.052c0-2.836,2.33-4.424,5.187-4.424a9.929,9.929,0,0,1,5.294,1.614l-1.535,2.731a8.517,8.517,0,0,0-3.838-1.3c-.978,0-1.479.416-1.479.963v.05c0,.782,1.35,1.147,2.884,1.666,1.982.651,4.285,1.587,4.285,4.137v.053c0,3.1-2.353,4.5-5.426,4.5" fill="#fff"/>
      <path id="Path_571" data-name="Path 571" d="M1897.882,6404.758v-1.508a5.5,5.5,0,0,1-4.287,1.768c-2.675,0-4.869-1.508-4.869-4.266v-.054c0-3.043,2.356-4.449,5.716-4.449a10.268,10.268,0,0,1,3.467.572v-.232c0-1.641-1.033-2.55-3.042-2.55a10.61,10.61,0,0,0-3.919.753l-1.005-3.019a12.723,12.723,0,0,1,5.5-1.117c4.394,0,6.325,2.236,6.325,6.01v8.092Zm.079-5.62a6.329,6.329,0,0,0-2.567-.52c-1.72,0-2.778.676-2.778,1.925v.052c0,1.067.9,1.693,2.2,1.693,1.88,0,3.149-1.015,3.149-2.448Z" fill="#fff"/>
      <rect id="Rectangle_451" data-name="Rectangle 451" width="4.022" height="18.995" transform="translate(1904.893 6385.764)" fill="#fff"/>
      <path id="Path_572" data-name="Path 572" d="M1917.144,6405.018a10.042,10.042,0,0,1-6.085-2.106l1.718-2.6a8.111,8.111,0,0,0,4.473,1.666c1.165,0,1.694-.417,1.694-1.041v-.052c0-.859-1.376-1.145-2.939-1.614-1.983-.571-4.232-1.483-4.232-4.189v-.052c0-2.836,2.329-4.424,5.186-4.424a9.92,9.92,0,0,1,5.293,1.614l-1.533,2.731a8.532,8.532,0,0,0-3.84-1.3c-.979,0-1.481.416-1.481.963v.05c0,.782,1.349,1.147,2.885,1.666,1.985.651,4.288,1.587,4.288,4.137v.053c0,3.1-2.356,4.5-5.427,4.5" fill="#fff"/>
    </g>
  </g>
</svg>
