<?xml version="1.0" encoding="utf-8"?>
<!-- Generator: Adobe Illustrator 16.0.0, SVG Export Plug-In . SVG Version: 6.00 Build 0)  -->
<!DOCTYPE svg PUBLIC "-//W3C//DTD SVG 1.1//EN" "http://www.w3.org/Graphics/SVG/1.1/DTD/svg11.dtd">
<svg version="1.1" id="Capa_1" xmlns="http://www.w3.org/2000/svg" xmlns:xlink="http://www.w3.org/1999/xlink" x="0px" y="0px"
	 width="18.635px" height="15.495px" viewBox="0 0 18.635 15.495" enable-background="new 0 0 18.635 15.495" xml:space="preserve">
<g>
	<path fill="#FFFFFF" d="M16.861,3.549H1.775C0.819,3.549,0,2.73,0,1.774l0,0C0,0.819,0.819,0,1.775,0h15.086
		c0.955,0,1.773,0.819,1.773,1.774l0,0C18.635,2.73,17.885,3.549,16.861,3.549z"/>
	<path fill="#FFFFFF" d="M16.861,9.487H1.775C0.819,9.487,0,8.669,0,7.713l0,0c0-0.956,0.819-1.774,1.775-1.774h15.086
		c0.955,0,1.773,0.819,1.773,1.774l0,0C18.635,8.669,17.885,9.487,16.861,9.487z"/>
	<path fill="#FFFFFF" d="M16.861,15.495H1.775C0.819,15.495,0,14.676,0,13.72l0,0c0-0.955,0.819-1.774,1.775-1.774h15.086
		c0.955,0,1.773,0.819,1.773,1.774l0,0C18.635,14.676,17.885,15.495,16.861,15.495z"/>
</g>
</svg>
