<?xml version="1.0" encoding="utf-8"?>
<!-- Generator: Adobe Illustrator 23.0.3, SVG Export Plug-In . SVG Version: 6.00 Build 0)  -->
<svg version="1.1" xmlns="http://www.w3.org/2000/svg" xmlns:xlink="http://www.w3.org/1999/xlink" x="0px" y="0px"
	 viewBox="0 0 50.01 50.09" style="enable-background:new 0 0 50.01 50.09;" xml:space="preserve">
<style type="text/css">
	.st0{fill:#4D4D4D;}
	.st1{opacity:0.8;fill:#E7E7E7;}
	.st2{opacity:0.4;fill:#FFFFFF;}
	.st3{opacity:0.8;fill:none;stroke:#0094D8;stroke-width:7;stroke-linecap:round;stroke-linejoin:round;stroke-miterlimit:10;}
	.st4{opacity:0.4;fill:#E7E7E7;}
	.st5{opacity:0.9;fill:#FFFFFF;}
	.st6{display:none;opacity:0.4;fill:#FFFFFF;}
	.st7{fill:#0093D7;}
	.st8{fill:#FFFFFF;}
	.st9{opacity:0.6;}
	.st10{fill:#008FD3;}
	.st11{fill:none;stroke:#FFFFFF;stroke-width:2;stroke-miterlimit:10;}
	.st12{fill:none;}
	.st13{fill:none;stroke:#FFFFFF;stroke-width:1.386;stroke-miterlimit:10;}
	.st14{opacity:0.6;fill:#008FD3;}
	.st15{opacity:0.8;}
	.st16{fill:#E7E7E7;}
	.st17{fill:none;stroke:#FFFFFF;stroke-width:1.386;stroke-linecap:round;stroke-miterlimit:10;}
	.st18{opacity:0.9;fill:#008FD3;}
	.st19{opacity:0.2;fill:#008FD3;}
	.st20{opacity:0.1;fill:#008FD3;}
	.st21{fill:none;stroke:#0093D7;stroke-width:1.386;stroke-linecap:round;stroke-miterlimit:10;}
	.st22{fill:none;stroke:#0093D7;stroke-width:1.386;stroke-miterlimit:10;}
	.st23{opacity:0.8;fill:#008FD3;}
	.st24{opacity:0.4;fill:#0093D7;}
	.st25{fill:#FFFFFF;stroke:#0094D8;stroke-width:1.808;stroke-miterlimit:10;}
	.st26{fill:none;stroke:#FFFFFF;stroke-width:1.0769;stroke-miterlimit:10;}
	.st27{fill:none;stroke:#FFFFFF;stroke-width:1.4;stroke-miterlimit:10;}
	.st28{fill:none;stroke:#0093D7;stroke-miterlimit:10;}
	.st29{fill:none;stroke:#FFFFFF;stroke-width:1.0161;stroke-miterlimit:10;}
	.st30{fill:#FCFFFF;}
	.st31{fill:none;stroke:#FFFFFF;stroke-miterlimit:10;}
	.st32{fill:none;stroke:#FFFFFF;stroke-linecap:round;stroke-miterlimit:10;}
	.st33{fill:none;stroke:#FFFFFF;stroke-width:1.1219;stroke-miterlimit:10;}
	.st34{opacity:0.6;fill:#FFFFFF;}
	.st35{opacity:0.86;fill:#008FD3;}
	.st36{fill:#0091D5;}
	.st37{opacity:0.8;fill:#FFFFFF;}
	.st38{opacity:0.8;fill:#4D4D4D;}
	.st39{fill-rule:evenodd;clip-rule:evenodd;fill:#FFFFFF;}
	
		.st40{fill-rule:evenodd;clip-rule:evenodd;fill:none;stroke:#0093D7;stroke-width:1.3;stroke-linecap:round;stroke-linejoin:round;stroke-miterlimit:10;}
	
		.st41{fill-rule:evenodd;clip-rule:evenodd;fill:none;stroke:#0093D7;stroke-linecap:round;stroke-linejoin:round;stroke-miterlimit:10;}
</style>
<g id="Capa_2">
</g>
<g id="Layer_1">
	<g>
		<g>
			<path class="st12" d="M25.01,28.56h-1.76v0.88c0,0.48-0.39,0.88-0.88,0.88c-0.48,0-0.88-0.39-0.88-0.88v-0.88H9.2v0.88
				c0,0.48-0.39,0.88-0.88,0.88c-0.48,0-0.88-0.39-0.88-0.88v-0.88H5.69c-0.49,0-0.88,0.39-0.88,0.88v14.93
				c0,0.48,0.39,0.88,0.88,0.88h19.32c0.48,0,0.88-0.39,0.88-0.88V29.44C25.88,28.95,25.49,28.56,25.01,28.56z M13.68,32.04
				c0-0.54,0.4-0.88,0.93-0.87c0.52,0,0.93,0.35,0.93,0.88l-0.03,7.16c0,0.53-0.42,0.88-0.93,0.87c-0.53,0-0.93-0.34-0.92-0.88
				L13.68,32.04z M14.57,42.86c-0.56,0-1.01-0.46-1-1.01c0-0.56,0.46-1,1.01-1c0.56,0,1.01,0.46,1,1.01
				C15.58,42.41,15.13,42.86,14.57,42.86z"/>
			<path class="st8" d="M25.01,26.8h-1.76v-0.88c0-0.49-0.39-0.88-0.88-0.88c-0.48,0-0.88,0.39-0.88,0.88v0.88H9.2v-0.88
				c0-0.49-0.39-0.88-0.88-0.88c-0.48,0-0.88,0.39-0.88,0.88v0.88H5.69c-1.45,0-2.63,1.18-2.63,2.63v14.93
				c0,1.45,1.18,2.63,2.63,2.63h19.32c1.45,0,2.63-1.18,2.63-2.63V29.44C27.64,27.98,26.46,26.8,25.01,26.8z M25.88,44.36
				c0,0.48-0.39,0.88-0.88,0.88H5.69c-0.49,0-0.88-0.39-0.88-0.88V29.44c0-0.49,0.39-0.88,0.88-0.88h1.75v0.88
				c0,0.48,0.39,0.88,0.88,0.88c0.49,0,0.88-0.39,0.88-0.88v-0.88h12.29v0.88c0,0.48,0.39,0.88,0.88,0.88
				c0.49,0,0.88-0.39,0.88-0.88v-0.88h1.76c0.48,0,0.88,0.39,0.88,0.88V44.36z"/>
			<path class="st8" d="M28.52,3.09c-10.17,0-18.44,8.27-18.44,18.44c0,0.55,0.04,1.12,0.12,1.85c0.05,0.48,0.49,0.84,0.97,0.78
				c0.48-0.05,0.83-0.49,0.77-0.97c-0.08-0.67-0.11-1.18-0.11-1.66c0-9.2,7.48-16.68,16.68-16.68c9.2,0,16.68,7.48,16.68,16.68
				c0,8.59-6.46,15.7-15.02,16.56c-0.48,0.05-0.83,0.48-0.79,0.96c0.05,0.45,0.43,0.79,0.87,0.79c0.03,0,0.06,0,0.09-0.01
				c9.46-0.94,16.6-8.81,16.6-18.3C46.96,11.36,38.68,3.09,28.52,3.09z"/>
			<path class="st8" d="M33.79,27.68c0.22,0,0.45-0.09,0.62-0.26c0.34-0.34,0.34-0.9,0-1.24l-5.01-5.01V10.12
				c0-0.49-0.39-0.88-0.88-0.88c-0.48,0-0.88,0.39-0.88,0.88v11.41c0,0.23,0.09,0.46,0.26,0.62l5.27,5.27
				C33.33,27.59,33.56,27.68,33.79,27.68z"/>
			<path class="st8" d="M14.58,40.08c0.52,0,0.93-0.34,0.93-0.87l0.03-7.16c0-0.53-0.41-0.88-0.93-0.88c-0.53,0-0.93,0.33-0.93,0.87
				l-0.03,7.16C13.65,39.74,14.05,40.08,14.58,40.08z"/>
			<path class="st8" d="M14.58,40.84c-0.55,0-1.01,0.45-1.01,1c0,0.56,0.45,1.01,1,1.01c0.56,0,1.01-0.45,1.01-1
				C15.58,41.3,15.13,40.85,14.58,40.84z"/>
		</g>
	</g>
</g>
</svg>
