<?xml version="1.0" encoding="utf-8"?>
<!-- Generator: Adobe Illustrator 23.0.3, SVG Export Plug-In . SVG Version: 6.00 Build 0)  -->
<svg version="1.1" xmlns="http://www.w3.org/2000/svg" xmlns:xlink="http://www.w3.org/1999/xlink" x="0px" y="0px"
	 viewBox="0 0 47.1 47.1" style="enable-background:new 0 0 47.1 47.1;" xml:space="preserve">
<style type="text/css">
	.st0{fill:#4D4D4D;}
	.st1{opacity:0.8;fill:#E7E7E7;}
	.st2{opacity:0.4;fill:#FFFFFF;}
	.st3{opacity:0.8;fill:none;stroke:#0094D8;stroke-width:7;stroke-linecap:round;stroke-linejoin:round;stroke-miterlimit:10;}
	.st4{opacity:0.4;fill:#E7E7E7;}
	.st5{opacity:0.9;fill:#FFFFFF;}
	.st6{display:none;opacity:0.4;fill:#FFFFFF;}
	.st7{fill:#0093D7;}
	.st8{fill:#FFFFFF;}
	.st9{opacity:0.6;}
	.st10{fill:#008FD3;}
	.st11{fill:none;stroke:#FFFFFF;stroke-width:2;stroke-miterlimit:10;}
	.st12{fill:none;}
	.st13{fill:none;stroke:#FFFFFF;stroke-width:1.386;stroke-miterlimit:10;}
	.st14{opacity:0.6;fill:#008FD3;}
	.st15{opacity:0.8;}
	.st16{fill:#E7E7E7;}
	.st17{fill:none;stroke:#FFFFFF;stroke-width:1.386;stroke-linecap:round;stroke-miterlimit:10;}
	.st18{opacity:0.9;fill:#008FD3;}
	.st19{opacity:0.2;fill:#008FD3;}
	.st20{opacity:0.1;fill:#008FD3;}
	.st21{fill:none;stroke:#0093D7;stroke-width:1.386;stroke-linecap:round;stroke-miterlimit:10;}
	.st22{fill:none;stroke:#0093D7;stroke-width:1.386;stroke-miterlimit:10;}
	.st23{opacity:0.8;fill:#008FD3;}
	.st24{opacity:0.4;fill:#0093D7;}
	.st25{fill:#FFFFFF;stroke:#0094D8;stroke-width:1.808;stroke-miterlimit:10;}
	.st26{fill:none;stroke:#FFFFFF;stroke-width:1.0769;stroke-miterlimit:10;}
	.st27{fill:none;stroke:#FFFFFF;stroke-width:1.4;stroke-miterlimit:10;}
	.st28{fill:none;stroke:#0093D7;stroke-miterlimit:10;}
	.st29{fill:none;stroke:#FFFFFF;stroke-width:1.0161;stroke-miterlimit:10;}
	.st30{fill:#FCFFFF;}
	.st31{fill:none;stroke:#FFFFFF;stroke-miterlimit:10;}
	.st32{fill:none;stroke:#FFFFFF;stroke-linecap:round;stroke-miterlimit:10;}
	.st33{fill:none;stroke:#FFFFFF;stroke-width:1.1219;stroke-miterlimit:10;}
	.st34{opacity:0.6;fill:#FFFFFF;}
	.st35{opacity:0.86;fill:#008FD3;}
	.st36{fill:#0091D5;}
	.st37{opacity:0.8;fill:#FFFFFF;}
	.st38{opacity:0.8;fill:#4D4D4D;}
	.st39{fill-rule:evenodd;clip-rule:evenodd;fill:#FFFFFF;}
	
		.st40{fill-rule:evenodd;clip-rule:evenodd;fill:none;stroke:#0093D7;stroke-width:1.3;stroke-linecap:round;stroke-linejoin:round;stroke-miterlimit:10;}
	
		.st41{fill-rule:evenodd;clip-rule:evenodd;fill:none;stroke:#0093D7;stroke-linecap:round;stroke-linejoin:round;stroke-miterlimit:10;}
</style>
<g id="Capa_2">
</g>
<g id="Layer_1">
	<g>
		<g>
			<g transform="translate(0,-1004.3622)">
				<g>
					<rect x="6.22" y="1015.35" class="st8" width="19.51" height="1.5"/>
					<rect x="6.22" y="1010.51" class="st8" width="13.51" height="1.5"/>
					<rect x="6.22" y="1019.86" class="st8" width="19.51" height="1.5"/>
					<path class="st8" d="M31.69,1049.83 M15.15,1044.67c-0.51,0.24-0.51,1.12,0,1.36l6.92,3.76h22.56c0.41,0,0.75-0.34,0.74-0.75
						l-0.04-7.52c0-0.41-0.33-0.74-0.74-0.74H22.07L15.15,1044.67z M40.32,1046.07v2.2l-8.63,0.05l-9.39,0.05l-5.31-3.05l5.31-3.05
						l9.34-0.05l8.63-0.05l0.05,2.39 M43.93,1048.28h-2.11l-0.05-6.1h2.11"/>
					<path class="st8" d="M23.86,1034.82h5.63c0.39,0,0.75-0.36,0.75-0.75v-4.13v-1.83v-15.06v-7.05h-8.26H2.47
						c-0.08-0.02-0.16-0.02-0.23,0c-0.31,0.1-0.53,0.42-0.52,0.75v27.31c0,0.39,0.36,0.75,0.75,0.75h3.38h0.05l0.75,0.04l5.77,5.77
						c0.4,0.46,1.33,0.09,1.31-0.52v-5.25l5.25-0.04H23.86z M12.98,1033.36c-0.39,0-0.75,0.36-0.75,0.75v4.18l-4.74-4.74
						c-0.14-0.12-0.33-0.19-0.52-0.19l-1.08-0.04H3.22v-25.81h18.76h6.75v5.55v15.06v1.83v3.38h-4.88h-4.88L12.98,1033.36z"/>
					<rect x="6.22" y="1028.86" class="st8" width="7.5" height="1.5"/>
					<rect x="6.22" y="1024.36" class="st8" width="19.51" height="1.5"/>
				</g>
			</g>
		</g>
	</g>
</g>
</svg>
